<?xml version="1.0" standalone="no"?>
<!DOCTYPE svg PUBLIC "-//W3C//DTD SVG 20010904//EN"
 "http://www.w3.org/TR/2001/REC-SVG-20010904/DTD/svg10.dtd">
<svg version="1.0" xmlns="http://www.w3.org/2000/svg"
 width="240.000000pt" height="240.000000pt" viewBox="0 0 240.000000 240.000000"
 preserveAspectRatio="xMidYMid meet">
<metadata>
Created by potrace 1.11, written by Peter Selinger 2001-2013
</metadata>
<g transform="translate(0.000000,240.000000) scale(0.100000,-0.100000)"
fill="#000000" stroke="none">
<path d="M1174 2355 c-4 -9 -13 -14 -21 -11 -8 3 -11 1 -8 -4 3 -6 0 -10 -7
-11 -46 -3 -62 -7 -66 -18 -3 -9 -7 -9 -19 0 -11 10 -14 10 -11 -2 2 -8 -4
-14 -12 -13 -25 2 -22 -42 4 -67 20 -19 22 -27 13 -38 -8 -10 -9 -13 -1 -8 7
4 14 -2 17 -13 3 -13 1 -18 -6 -14 -7 3 -1 -3 12 -14 18 -14 21 -21 11 -27 -9
-5 -11 -4 -6 3 4 7 2 12 -3 12 -6 0 -11 -5 -11 -11 0 -6 -6 -9 -12 -6 -7 2
-12 11 -10 18 1 8 -5 5 -13 -6 -9 -11 -18 -19 -20 -17 -13 6 -18 1 -6 -7 9 -6
5 -10 -17 -13 -22 -3 -29 0 -27 11 4 28 17 61 24 61 4 0 7 11 7 25 0 23 -7 30
-28 26 -5 0 -8 3 -8 7 0 5 -7 9 -15 9 -8 0 -12 -4 -9 -9 3 -4 0 -8 -5 -8 -6 0
-11 5 -11 12 0 6 -3 8 -7 5 -3 -4 -12 -2 -19 4 -11 9 -16 6 -23 -12 -7 -18
-10 -19 -10 -6 -1 9 -7 17 -13 17 -9 0 -8 4 2 10 8 5 10 10 4 10 -6 0 -16 10
-22 23 -6 12 -11 16 -11 9 -1 -7 -6 -10 -11 -7 -6 4 -7 11 -4 17 4 5 -5 3 -19
-6 -20 -13 -26 -14 -30 -4 -3 7 -6 2 -6 -12 -1 -17 -4 -21 -9 -12 -5 7 -16 10
-25 6 -9 -3 -14 -10 -11 -15 3 -5 -3 -9 -13 -9 -15 0 -16 -2 -3 -10 13 -8 12
-10 -3 -10 -10 0 -15 -4 -12 -10 3 -5 1 -10 -6 -10 -7 0 -9 -3 -6 -7 4 -3 0
-11 -8 -17 -17 -13 -5 -33 33 -54 18 -10 27 -10 38 -1 11 9 14 7 14 -10 0 -17
-5 -22 -22 -19 -15 2 -23 -2 -23 -12 0 -8 -7 -14 -16 -14 -9 1 -16 -4 -16 -10
0 -6 -2 -18 -4 -26 -2 -8 1 -14 8 -13 7 2 10 -4 6 -13 -4 -11 0 -15 13 -12 20
3 27 -22 9 -34 -14 -10 -37 -10 -31 0 7 11 -40 9 -51 -2 -5 -5 -1 -7 10 -3 11
4 16 3 12 -3 -3 -6 -13 -10 -21 -10 -8 0 -14 -6 -14 -12 -1 -8 -7 -5 -15 6 -9
12 -21 17 -36 13 -11 -3 -18 -3 -15 0 3 3 -2 12 -12 20 -9 8 -11 11 -3 7 10
-5 12 -3 7 5 -5 8 -12 9 -20 2 -15 -13 -52 -7 -48 9 1 6 -2 9 -8 5 -6 -3 -7
-12 -3 -18 4 -8 1 -8 -9 1 -13 10 -19 10 -31 -2 -8 -8 -17 -12 -21 -9 -3 4 -6
1 -6 -6 0 -6 -6 -11 -12 -10 -26 3 -39 -1 -33 -11 3 -5 -1 -10 -10 -10 -9 0
-13 -4 -10 -10 3 -5 1 -10 -5 -10 -6 0 -8 -4 -5 -10 3 -5 1 -10 -6 -10 -8 0
-8 -4 1 -15 7 -8 8 -15 3 -15 -5 0 -10 -7 -10 -15 0 -8 4 -15 9 -15 5 0 6 -4
3 -10 -3 -5 -1 -10 4 -10 6 0 11 -7 11 -16 0 -14 2 -15 17 -3 9 8 14 9 10 3
-4 -8 6 -14 28 -18 19 -4 35 -12 35 -19 0 -8 3 -8 9 2 5 8 11 9 15 3 3 -6 -3
-14 -15 -17 -17 -6 -19 -9 -8 -16 11 -7 11 -9 1 -9 -10 0 -10 -3 1 -15 18 -18
11 -58 -9 -51 -8 3 -14 0 -14 -7 0 -7 -3 -8 -8 -2 -4 6 -16 15 -27 22 -11 6
-19 17 -17 23 1 7 -3 19 -10 28 -11 13 -11 14 2 7 8 -4 4 4 -10 19 -13 15 -26
22 -28 17 -2 -6 -12 -11 -23 -11 -10 0 -18 -6 -16 -12 1 -7 -4 -12 -10 -11 -7
2 -13 -2 -13 -7 0 -6 -6 -10 -14 -10 -15 0 -29 -37 -16 -42 4 -2 -2 -12 -13
-23 -11 -11 -16 -14 -12 -6 5 9 4 12 -3 7 -8 -5 -9 -13 -3 -24 5 -9 11 -20 13
-24 1 -4 -6 -14 -17 -23 -16 -12 -16 -14 -3 -9 11 4 20 0 24 -9 3 -9 13 -14
22 -12 9 1 28 -2 42 -8 14 -5 33 -9 44 -8 13 2 16 -1 10 -11 -6 -11 -5 -11 8
0 22 17 35 -3 16 -25 -7 -9 -8 -14 -2 -10 6 3 11 -1 11 -9 0 -8 -6 -13 -14
-10 -7 3 -12 2 -10 -2 2 -7 -6 -12 -24 -12 -5 0 -7 5 -4 10 3 6 -1 10 -10 10
-9 0 -14 4 -11 8 2 4 -10 9 -27 10 -18 2 -34 7 -35 12 -2 6 -7 8 -12 5 -4 -2
-7 3 -7 13 0 9 -1 22 -2 28 -2 17 -52 14 -58 -3 -3 -8 -12 -12 -19 -9 -8 3
-14 -1 -14 -9 0 -13 -11 -19 -31 -17 -3 1 -3 -12 -1 -29 2 -16 0 -29 -6 -29
-6 0 -10 -9 -9 -20 1 -11 6 -20 12 -20 5 0 3 -5 -5 -10 -10 -6 -11 -10 -2 -10
6 0 12 -12 12 -26 0 -14 4 -23 10 -19 6 3 10 1 10 -4 0 -15 33 -14 55 3 10 7
27 11 37 8 11 -2 18 1 18 9 0 11 2 11 10 -1 8 -12 10 -12 10 -1 0 11 3 11 17
0 14 -12 15 -12 9 -1 -7 11 -4 12 12 3 11 -6 23 -22 26 -36 4 -15 11 -23 17
-19 8 4 9 -1 4 -17 -4 -13 -14 -28 -22 -32 -7 -5 -11 -12 -8 -18 3 -5 -1 -6
-9 -3 -10 4 -14 0 -12 -13 2 -11 11 -18 24 -17 12 1 19 -3 15 -8 -3 -6 1 -14
8 -19 11 -7 11 -9 1 -9 -7 0 -11 -4 -8 -9 8 -12 -62 -19 -74 -7 -7 7 -10 5
-10 -4 0 -8 -12 2 -27 23 -18 26 -30 34 -38 27 -6 -5 -15 -7 -18 -4 -3 4 -9
-5 -13 -20 -3 -14 -9 -26 -13 -26 -4 0 -12 -14 -18 -30 -6 -17 -7 -28 -2 -24
10 6 7 -32 -4 -42 -4 -4 -7 -12 -7 -18 0 -6 5 -4 10 4 8 12 10 9 10 -11 0 -15
8 -33 17 -40 10 -8 14 -9 10 -2 -4 6 -3 14 3 18 5 3 10 -1 10 -9 0 -9 6 -13
13 -10 8 3 20 -2 27 -11 12 -14 15 -14 31 1 11 10 22 14 26 11 3 -4 1 -7 -7
-7 -10 0 -10 -4 1 -17 8 -10 9 -14 2 -10 -6 4 -15 2 -18 -3 -5 -8 -14 -5 -28
7 -20 17 -20 17 -13 -1 6 -17 4 -17 -11 -5 -10 7 -15 10 -11 5 4 -5 3 -16 -2
-26 -5 -10 -6 -20 -3 -24 13 -13 11 -37 -2 -43 -11 -4 -10 -9 5 -26 15 -16 17
-23 8 -29 -12 -7 -3 -12 16 -9 5 1 4 -5 -4 -13 -10 -13 -10 -16 4 -16 10 0 14
-5 10 -11 -3 -6 0 -15 7 -20 12 -7 12 -9 0 -9 -11 0 -11 -3 -1 -15 10 -12 10
-15 -1 -15 -10 0 -10 -3 -1 -12 15 -15 16 -31 0 -22 -7 4 -8 3 -4 -4 4 -6 13
-9 20 -6 7 3 16 -2 20 -11 4 -11 2 -14 -7 -10 -6 4 -1 -3 12 -14 12 -12 28
-18 34 -14 5 3 7 1 4 -4 -4 -6 1 -17 10 -24 14 -12 16 -12 9 1 -6 13 -5 13 6
0 17 -20 40 -15 57 11 10 17 10 20 -1 13 -7 -4 -4 2 6 14 24 27 24 27 21 -3
-2 -18 2 -25 13 -25 15 0 15 -2 2 -10 -13 -8 -12 -10 3 -10 20 0 22 -13 4 -32
-15 -14 -18 -68 -4 -68 4 0 6 -4 3 -8 -3 -5 9 -23 26 -41 24 -24 34 -29 44
-20 8 6 14 8 14 3 0 -5 14 -17 30 -26 17 -9 30 -13 30 -8 0 6 4 9 9 8 5 -2 8
0 7 3 0 3 5 13 11 21 7 8 10 18 6 22 -11 11 -14 48 -3 41 5 -3 10 2 10 12 0
15 2 16 10 3 9 -14 15 -7 11 14 -1 5 4 4 12 -2 8 -7 18 -8 22 -4 5 4 5 1 1 -5
-4 -7 -2 -13 3 -13 6 0 11 -5 11 -11 0 -5 -5 -7 -11 -3 -8 4 -8 1 -1 -12 7
-14 6 -23 -4 -32 -8 -7 -14 -10 -14 -7 0 3 -6 0 -14 -7 -10 -9 -11 -15 -2 -20
8 -6 7 -8 -2 -8 -9 0 -8 -7 5 -24 10 -13 22 -21 27 -18 5 3 7 -5 4 -16 -4 -15
-2 -22 8 -22 8 0 14 -6 14 -12 0 -9 3 -8 10 2 6 11 12 12 20 4 11 -11 4 -44
-9 -44 -4 0 -7 -10 -6 -22 2 -13 7 -22 13 -21 6 2 9 -4 6 -12 -4 -10 0 -15 12
-15 9 0 14 -3 11 -7 -8 -7 11 -33 25 -33 5 0 6 6 3 13 -4 6 0 4 8 -5 8 -10 17
-15 20 -11 4 3 7 -2 7 -13 0 -14 2 -16 9 -5 7 11 9 11 14 0 4 -11 6 -11 6 -1
1 7 5 11 11 7 10 -6 64 5 56 12 -2 2 0 18 4 34 6 20 5 29 -3 29 -6 0 -2 7 9
16 10 8 14 13 7 10 -6 -4 -14 -3 -17 2 -3 5 0 9 7 9 7 0 17 2 22 3 24 6 35 -1
35 -22 0 -16 3 -19 8 -10 6 9 13 7 28 -10 12 -14 13 -18 3 -10 -14 10 -16 9
-14 -12 2 -17 -1 -23 -10 -19 -10 3 -13 -3 -12 -19 1 -26 43 -71 58 -63 5 4 9
-4 9 -17 0 -17 3 -19 9 -9 6 9 11 10 15 2 4 -6 11 -9 16 -6 5 3 20 1 34 -4 20
-8 24 -7 20 4 -4 10 0 13 15 10 14 -2 21 1 21 11 0 8 5 14 10 14 6 0 10 5 10
11 0 5 -6 7 -13 3 -8 -6 -8 -3 1 9 8 9 11 25 7 38 -5 16 -4 19 5 14 9 -6 11
-4 5 6 -5 7 -8 26 -7 42 2 21 -1 26 -10 21 -10 -6 -11 -5 -1 7 10 12 10 18 0
29 -9 10 -9 11 1 6 7 -4 12 -2 13 6 0 7 5 3 11 -9 14 -29 36 -36 54 -18 20 19
25 19 17 -2 -5 -12 -3 -14 7 -8 10 6 12 4 7 -9 -4 -10 -7 -22 -7 -27 0 -5 -3
-8 -7 -8 -22 4 -25 -3 -7 -17 10 -8 14 -13 7 -10 -6 4 -17 -7 -24 -23 -7 -16
-16 -28 -20 -25 -4 2 -6 -4 -5 -13 2 -10 17 -25 35 -33 17 -9 28 -20 24 -25
-4 -5 -1 -4 9 3 12 10 18 10 24 1 5 -8 3 -9 -6 -4 -8 5 -11 4 -6 -3 7 -11 36
-6 36 7 0 4 7 8 15 8 11 0 12 -4 3 -14 -9 -11 -6 -12 13 -4 13 5 23 15 21 22
-3 10 0 10 12 0 13 -11 17 -10 22 3 5 13 9 14 20 5 12 -10 13 -8 7 6 -5 14 -3
17 9 12 12 -4 14 -1 11 14 -3 10 -9 16 -14 13 -5 -3 -6 2 -3 10 4 11 0 16 -10
16 -9 0 -16 5 -16 11 0 5 -6 7 -12 3 -7 -4 -10 -3 -5 1 4 5 -1 17 -10 28 -10
11 -13 17 -7 14 7 -4 14 0 18 8 3 8 0 15 -7 15 -8 0 -6 4 3 10 12 8 12 10 1
10 -11 0 -11 3 0 17 12 15 12 16 -1 8 -12 -7 -13 -6 -3 7 7 8 9 18 5 22 -4 4
0 6 8 4 8 -1 18 -7 22 -13 5 -6 8 -5 8 3 0 7 5 10 10 7 6 -3 10 0 10 7 0 9 3
9 10 -2 6 -9 10 -11 10 -3 0 7 7 10 15 7 8 -3 13 -11 12 -17 -1 -7 5 -12 13
-11 22 2 23 -33 2 -48 -10 -7 -17 -19 -16 -25 1 -7 2 -20 3 -28 0 -9 11 -15
24 -15 12 0 33 -8 46 -17 14 -9 21 -11 17 -5 -4 7 -1 12 9 12 10 0 14 -5 10
-13 -4 -6 -1 -5 7 4 13 15 52 23 43 8 -3 -3 3 -13 12 -20 14 -12 16 -12 8 1
-8 13 -7 13 8 1 14 -11 17 -11 17 0 0 11 2 11 10 -1 9 -13 11 -13 19 0 5 8 7
18 5 22 -3 4 3 5 12 1 13 -5 15 -3 9 8 -6 11 -5 12 6 2 18 -18 30 -16 22 4 -4
11 -3 14 5 9 7 -4 12 -1 12 8 0 9 5 16 11 16 5 0 8 4 5 9 -3 5 1 12 9 15 9 3
20 17 25 31 5 14 14 25 20 25 5 0 9 5 8 12 -2 7 3 12 11 13 8 0 15 8 17 18 1
9 -1 15 -6 12 -4 -3 -10 5 -13 16 -3 12 -10 18 -17 14 -6 -4 -18 -1 -27 7 -14
11 -16 11 -9 -2 8 -13 7 -13 -7 0 -8 8 -17 24 -19 35 -2 11 -7 23 -13 27 -5 4
3 8 18 8 16 0 26 4 22 10 -16 25 56 105 88 96 15 -4 16 -2 6 12 -12 15 -11 16
4 2 10 -9 17 -34 18 -64 2 -28 8 -50 16 -53 7 -3 11 -8 8 -13 -2 -4 8 -6 23
-6 15 1 33 -3 40 -8 7 -5 12 -4 12 3 0 6 4 11 10 11 5 0 7 -8 3 -17 -6 -16 -3
-15 17 2 13 11 21 15 17 9 -3 -6 0 -11 8 -11 8 0 11 5 8 10 -4 7 1 8 13 3 10
-4 15 -4 12 0 -8 7 14 34 23 28 9 -5 23 46 20 74 -1 12 2 22 7 22 5 0 8 10 7
23 -1 12 -3 28 -4 35 0 6 -6 12 -12 12 -5 0 -7 -6 -4 -12 4 -7 -1 -4 -10 7 -9
11 -18 19 -20 18 -16 -9 -35 0 -36 15 0 9 -3 12 -6 5 -7 -18 -56 34 -49 53 3
8 9 14 13 13 4 -1 14 -1 22 0 11 1 11 4 0 18 -11 13 -11 15 -1 9 9 -6 12 -3
10 10 -2 11 2 18 9 17 16 -3 28 41 17 59 -17 26 -13 38 6 25 10 -6 17 -14 14
-18 -2 -4 0 -10 5 -13 5 -4 13 -1 16 4 12 20 45 -20 40 -48 -2 -13 -1 -22 2
-18 3 3 11 -1 17 -10 10 -13 15 -12 38 9 15 14 24 28 20 33 -4 4 -2 4 5 0 6
-3 23 5 37 19 28 28 34 41 14 29 -10 -6 -10 -5 -1 7 7 9 11 25 8 38 -2 12 0
19 5 16 8 -5 37 35 32 43 -6 8 0 22 7 18 11 -7 23 22 15 35 -3 5 -1 9 3 9 14
0 6 62 -9 71 -11 7 -10 11 2 19 13 8 13 10 -1 10 -9 0 -24 10 -33 22 -10 15
-14 17 -10 5 5 -13 2 -16 -10 -11 -10 4 -16 1 -16 -7 0 -7 -3 -9 -7 -6 -3 4
-13 1 -21 -6 -11 -8 -14 -9 -9 0 8 13 -30 12 -51 -1 -7 -4 -16 -4 -22 -1 -5 3
-10 1 -10 -5 0 -8 -6 -8 -21 0 -15 9 -18 15 -10 24 6 7 8 16 4 20 -14 13 -12
38 3 32 8 -3 14 -1 14 5 0 6 6 9 13 7 14 -5 49 27 39 36 -3 4 3 13 14 20 11 8
21 28 22 46 3 42 9 51 29 43 10 -4 14 -2 10 4 -5 7 0 9 14 6 12 -4 25 0 30 8
7 11 9 11 9 1 0 -10 3 -10 14 0 7 7 13 23 11 35 -1 15 2 20 14 16 12 -3 11 -1
-3 11 -10 8 -20 28 -22 43 -1 15 -2 31 -3 36 -1 4 -7 7 -15 7 -8 0 -18 5 -22
12 -4 6 -3 8 4 4 7 -4 10 1 9 14 -1 11 -4 20 -7 20 -5 0 -9 18 -12 58 -1 6 -3
10 -6 8 -5 -5 -21 7 -62 47 -22 22 -28 36 -26 66 0 22 -2 37 -5 35 -3 -2 -17
9 -30 24 -15 16 -17 21 -5 12 18 -14 18 -14 6 7 -8 12 -17 20 -21 17 -4 -2
-10 3 -13 12 -4 10 -2 13 7 9 6 -4 1 3 -13 14 -15 13 -20 21 -11 21 11 0 11 4
-2 18 -10 10 -17 24 -17 31 0 8 -6 11 -16 7 -8 -3 -13 -2 -10 3 7 11 -31 51
-49 51 -8 0 -17 5 -21 12 -5 7 -2 8 7 3 8 -5 3 4 -11 20 -14 16 -19 25 -11 20
9 -5 8 1 -4 18 -9 14 -16 28 -16 31 3 21 -1 27 -14 22 -8 -3 -14 0 -12 7 1 7
-4 11 -10 9 -7 -1 -13 3 -13 9 0 5 -4 7 -10 4 -5 -3 -10 -1 -10 5 0 6 -5 8
-12 3 -7 -4 -26 -8 -43 -8 -25 -1 -32 -6 -41 -34 -10 -31 -13 -33 -70 -36 -44
-2 -64 2 -78 14 -10 9 -21 14 -25 12 -14 -10 -28 -27 -35 -46 -4 -12 -10 -15
-14 -9 -4 6 -15 10 -25 8 -11 -1 -16 0 -13 3 3 4 0 13 -7 21 -8 10 -8 13 -1 9
7 -4 15 0 18 9 3 9 2 12 -5 9 -6 -4 -9 0 -7 11 2 10 -1 19 -7 19 -5 0 -16 4
-22 8 -7 5 -18 5 -25 1 -7 -4 -8 -3 -4 4 4 7 3 12 -1 12 -5 0 -9 9 -10 20 -1
11 2 18 8 15 5 -4 9 -2 9 2 0 5 7 18 16 29 8 10 12 12 8 4 -6 -13 -4 -12 10 1
9 8 19 29 21 45 2 16 2 23 -1 16 -4 -8 -16 0 -37 23 -22 25 -34 32 -43 24 -8
-7 -14 -6 -20 2 -5 8 -3 9 6 4 9 -6 11 -4 5 4 -5 9 -10 10 -18 2 -8 -8 -15 -5
-24 11 -10 19 -12 20 -13 6 0 -18 -11 -22 -39 -18 -8 1 -17 -3 -21 -9 -3 -7
-17 -13 -29 -16 -17 -3 -25 1 -28 15 -3 11 -10 20 -15 20 -5 0 -7 4 -4 8 2 4
-11 9 -30 10 -25 2 -33 -1 -29 -9 6 -8 2 -8 -14 0 -17 10 -22 9 -27 -4z m176
-127 c0 -13 -4 -17 -12 -12 -7 4 -4 -3 7 -16 11 -13 14 -20 8 -16 -7 4 -13 2
-13 -3 0 -6 6 -11 13 -12 8 0 8 -2 -2 -6 -11 -5 -11 -7 0 -14 10 -6 10 -9 2
-9 -7 0 -10 -6 -7 -14 4 -9 -3 -13 -20 -13 -14 0 -26 2 -27 6 0 3 -2 16 -5 29
-3 15 0 21 7 16 8 -5 8 -1 0 14 -14 27 -14 59 1 68 7 5 9 2 4 -7 -4 -8 -1 -7
5 2 16 21 39 13 39 -13z m606 -270 c19 -22 19 -22 0 -8 -18 14 -19 14 -9 -5
13 -25 6 -55 -8 -34 -7 11 -9 10 -9 -3 0 -10 -4 -18 -9 -18 -6 0 -8 -9 -6 -20
3 -14 -2 -20 -16 -20 -10 0 -21 0 -24 0 -3 0 -5 3 -4 6 0 3 -8 12 -18 21 -10
8 -13 12 -7 9 11 -5 44 27 44 44 0 6 8 10 17 10 9 0 14 3 10 6 -4 5 10 30 19
34 0 0 9 -10 20 -22z m94 -174 c8 -8 9 -14 3 -12 -6 2 -11 0 -12 -4 -2 -12
-44 -52 -57 -54 -7 -1 -14 7 -17 17 -3 10 -2 17 2 14 13 -7 52 25 45 37 -4 7
-2 8 4 4 7 -4 12 -2 12 3 0 15 5 14 20 -5z m157 -105 c1 -11 -3 -16 -11 -13
-16 6 -17 31 -1 31 6 0 12 -8 12 -18z m-77 -42 c0 -5 8 -3 17 4 11 10 14 10 9
2 -4 -7 -3 -13 2 -13 5 0 9 -7 9 -15 0 -8 -4 -15 -9 -15 -4 0 -8 -8 -9 -17 0
-11 -3 -13 -6 -5 -6 15 -35 16 -51 0 -7 -7 -12 -8 -12 -2 0 5 -5 2 -11 -6 -8
-12 -9 -9 -4 10 6 24 5 24 -9 6 -9 -11 -16 -15 -16 -10 0 17 22 33 36 27 10
-4 12 0 7 12 -5 15 -2 17 16 12 17 -4 20 -3 12 7 -8 9 -7 13 4 13 8 0 15 -5
15 -10z m-2000 -281 c0 -2 -7 -7 -16 -10 -8 -3 -12 -2 -9 4 6 10 25 14 25 6z
m2032 -400 c7 4 8 2 4 -5 -9 -13 -26 -5 -25 12 0 9 2 8 6 -1 2 -6 10 -9 15 -6z
m-1880 -155 c8 11 9 11 6 1 -4 -16 -22 -18 -24 -3 -2 8 -1 7 3 0 4 -8 8 -7 15
2z"/>
<path d="M2000 1745 c-7 -9 -11 -17 -9 -20 3 -2 10 5 17 15 14 24 10 26 -8 5z"/>
<path d="M165 1180 c3 -5 8 -10 11 -10 2 0 4 5 4 10 0 6 -5 10 -11 10 -5 0 -7
-4 -4 -10z"/>
</g>
</svg>
